<svg width="119" height="27" viewBox="0 0 119 27" fill="none" xmlns="http://www.w3.org/2000/svg">
<rect width="1440" height="2700" transform="translate(-1179 -2438)" fill="white"/>
<rect x="-1179" y="-638" width="1440" height="900" fill="#EBE3D8"/>
<path d="M113.03 13.5293C113.323 13.2364 113.323 12.7615 113.03 12.4686L108.257 7.69567C107.964 7.40278 107.49 7.40278 107.197 7.69568C106.904 7.98857 106.904 8.46344 107.197 8.75634L111.439 12.999L107.197 17.2416C106.904 17.5345 106.904 18.0094 107.197 18.3023C107.49 18.5952 107.964 18.5952 108.257 18.3023L113.03 13.5293ZM112.5 12.249L4.5 12.2493L4.5 13.7493L112.5 13.749L112.5 12.249Z" fill="black"/>
</svg>
